<?xml version="1.0" encoding="utf-8"?>
<!-- Generator: Adobe Illustrator 22.0.1, SVG Export Plug-In . SVG Version: 6.00 Build 0)  -->
<svg version="1.1" id="Layer_1" xmlns="http://www.w3.org/2000/svg" xmlns:xlink="http://www.w3.org/1999/xlink" x="0px" y="0px"
	 viewBox="0 0 158.4 46.8" style="enable-background:new 0 0 158.4 46.8;" xml:space="preserve">
<style type="text/css">
	.st0{fill:#0D339E;}
</style>
<g>
	<g>
		<path class="st0" d="M105.8,29.5c0-0.9-0.8-1.7-1.7-1.7c-0.3,0-0.7,0-1,0c-0.2,0-0.3,0-0.3,0s-0.1-0.1-0.2-0.3
			c-0.7-2-1.1-2.9-1.6-3.9c-0.3-0.7-0.7-1.6-1.2-2.9c-0.2-0.5-0.7-0.8-1.2-0.8h-1.3l0,0c-0.4,0-0.9,0.2-1.1,0.6
			c-0.3,0.4-0.3,0.8-0.1,1.3c0.7,1.7,1.1,2.6,1.5,3.4s0.7,1.5,1.1,2.6h-2.6c-1,0-1.7,0.8-1.7,1.7c0,1,0.8,1.7,1.7,1.7h8
			C105,31.2,105.8,30.4,105.8,29.5z"/>
		<path class="st0" d="M85.3,27.7h-2.8l8.1-19.9c0.1,0.2,0.2,0.4,0.2,0.6c0.4,1,0.9,2.1,1.9,4.6c0.2,0.6,0.8,1,1.4,1l0,0h1.1
			c0.5,0,0.9-0.2,1.2-0.6c0.3-0.4,0.3-0.9,0.1-1.3c-0.7-1.7-1.2-2.8-1.6-3.9c-0.6-1.4-1.2-2.7-2.1-5.1c-0.4-1-1-1.4-2.1-1.4
			c-1.8,0-3.5,0-5.3,0h-2c-0.6,0-16.6,0-16.6,0h-1.1l0,0c-0.3,0-0.6,0-0.9,0c-0.9,0-1.5,0.9-1.8,1.4c-0.8,1.9-1.6,3.7-2.3,5.6
			l-0.2,0.5c-0.3,0.8-0.6,1.6-0.9,2.4c-0.4,1.1-0.8,2.1-1.3,3.2c-0.2,0.5-0.5,1.1-0.7,1.7c-0.5-1.2-1-2.4-1.5-3.7l-0.6-1.6
			c-0.3-0.7-0.6-1.4-0.9-2.2c-0.7-1.6-1.3-3.3-1.9-4.9l-0.1-0.2c-0.8-2.1-1.2-2.4-3.5-2.4c-1.3,0-2.1,0-5.5,0c-3.5,0-4.9,0.4-6,1.8
			c-0.4,0.4-2.9,4.6-3.9,6.2c-0.7,1.3-1.3,2.6-1.9,4L31.6,13c-4-8.6-5.9-11.4-13-11.4H2.4C1.7,1.8,1,2.2,0.6,2.7
			C0.1,3.3-0.1,4,0.1,4.6c0.1,0.7,0.5,1.3,1,1.8C1.4,6.8,1.7,7.2,2,7.6C2.1,7.8,2.3,8,2.4,8.1L7.9,15c0.4,0.5,0.4,1.1,0,1.6
			c-0.3,0.4-0.5,0.8-0.8,1.2c-0.4,0.6-0.7,1.1-1.1,1.7c-0.6,0.9-1.2,1.7-1.8,2.4c-0.9,1.3-1.8,2.4-2.4,3.3l-0.1,0.1
			c-1,1.4-1.4,2.2-1.7,3c-0.2,0.7,0,1.4,0.4,2c0.5,0.6,1.2,1,1.9,1H19c1.3,0,2.3-1,2.3-2.3v-0.7c0-1.9,0-3.7,0-5.5
			c0-1.2-0.7-2-1.9-2c-0.4,0-1.8,0.1-1.9,1.9c-0.1,0.9,0,1.8,0,2.6c0,0.8,0,1.6,0,2.4H4.9c1.6-2.3,5.5-7.9,7.4-10.7
			c0.5-0.7,0.3-1.8-0.1-2.4c-0.7-0.9-1.4-1.8-2.1-2.7c-0.3-0.3-0.6-0.7-0.8-1C8.2,9.3,6.3,7,5.1,5.4h13.5c4.9,0,6.2,2.5,7.8,5.6
			c0.2,0.5,0.5,0.9,0.7,1.4c1.7,3.1,2.8,5.9,2.6,9.5c-0.1,1.6-0.1,3.1-0.1,4.7v0.9c0,0.1,0,0.1-0.1,0.2c0,0-0.1,0.1-0.2,0.1h-4
			c-1,0-1.7,0.8-1.7,1.7c0,1,0.8,1.7,1.7,1.7H38c1,0,1.7-0.8,1.7-1.8s-0.8-1.7-1.7-1.7h-4c-0.1,0-0.1,0-0.2-0.1c0,0-0.1-0.1-0.1-0.2
			v-0.9c0-1.6,0-3.1,0-4.7c0-1.7,0.1-3.8,0.9-5.9c1.6-4,3.9-7.4,6.2-10.6c0.4-0.1,1.8-0.4,5.1-0.2c0.1,0,0.2,0.1,0.2,0.2
			c0,1.4-0.1,3.8-0.1,6.4c0,3-0.1,6.2-0.1,8.2c0,1-0.1,2-0.2,3c-0.1,1.4-0.2,2.9-0.2,4.3c0,0.2,0,0.3,0,0.3c-0.1,0-0.2,0-0.3,0
			c-0.4,0-0.9,0-1.3,0c-0.9,0-1.7,0.8-1.7,1.7c0,1,0.8,1.7,1.7,1.7h8c1,0,1.7-0.8,1.7-1.7c0-0.9-0.8-1.7-1.7-1.7h-0.3
			c-0.8,0-1.6,0-2.3,0c-0.1,0-0.2,0-0.2,0c0-0.1,0-0.2,0-0.3c0.2-3.4,0.3-6.9,0.4-10.2c0.1-1.8,0.1-3.6,0.2-5.4
			c0-1.2,0.1-2.9,0.2-4.4c0.3,0.6,0.6,1.4,1,2.3c0.8,1.9,1.6,3.9,2.3,5.8l0.6,1.5c0.4,1,1.1,2.7,1.8,4.3c0.4,0.8,1.1,1.3,2,1.3
			s1.6-0.5,2-1.3c1-2.3,2.5-5.9,3.4-8.1l0.5-1.2c0.5-1.2,1-2.4,1.5-3.6c0,0,0.1-0.2,0.2-0.4c0.2,3.4,0.5,8.8,0.6,11.3
			c0,1.4,0.1,2.7,0.1,4.1c0,1.5,0,2.9,0.1,4.4v0.1c0,0,0,0-0.1,0c-1,0-2.7,0-3.6,0c-1,0-1.7,0.8-1.8,1.8c0,0.5,0.2,0.9,0.5,1.3
			c0.3,0.3,0.8,0.5,1.3,0.5h8.8c1,0,1.8-0.8,1.8-1.8s-0.8-1.8-1.8-1.8h-1c-0.1,0-0.2-0.1-0.2-0.2c-0.6-4.7-1-17-1-22.2
			c0-0.1,0.1-0.1,0.2-0.1c4.4,0,14.7,0,18.5,0c-0.7,1.9-2.2,5.3-3.2,7.9l-1.9,4.5c-1.2,2.8-2.3,5.7-3.5,8.6
			c-0.5,1.2-0.6,1.4-1.9,1.6c-0.9,0.1-1.5,0.8-1.5,1.7c0,0.9,0.8,1.7,1.7,1.7h8.1c1,0,1.7-0.8,1.7-1.7C87,28.5,86.2,27.7,85.3,27.7z
			"/>
		<path class="st0" d="M126,42.2L126,42.2c-0.7,0-0.9,0-0.9,0c-0.3,0-0.7-0.6-1-1.2c-2.3-3.8-4.4-7.5-6.7-11.4c0-0.1,0-0.3,0-0.4
			c1.6-2.9,3.4-5.9,4.3-7.5c0.3-0.4,0.3-1,0-1.4c-0.2-0.4-0.7-0.7-1.2-0.7h-1.1c-0.5,0-1,0.3-1.3,0.7c-0.2,0.4-1.4,2.4-1.4,2.4
			s-0.8,1.4-1.7,2.9c-1.4-2.2-4-6.6-5.5-9.2c-0.3-0.5-1-1.1-1.7-1.1c-0.2,0-0.8-0.1-10.9,0h-2c-3.2,0-5.4,0-6.1,0
			c-0.5,0-1,0.3-1.2,0.8l-0.4,0.8c-0.2,0.4-0.2,0.9,0.1,1.3c0.2,0.4,0.7,0.6,1.1,0.6c1.1,0,3.8,0,7.1,0h2c8.1,0,8.4,0,8.5,0
			c0.2,0,0.2,0,0.2,0c0.1,0.1,0.3,0.4,0.5,0.7c0.1,0.2,0.3,0.4,0.4,0.6c0.6,0.8,1.8,3,2.9,5c0.8,1.5,1.5,2.7,1.9,3.3
			c0.8,1.3,0.8,1.3,0.5,1.7c-1,1.6-2.1,3.3-3.2,5.3c-1.1,1.9-3.3,5.7-4.2,7.3c-0.5,0.8-0.3,1.8,0.5,2.4c0.4,0.3,1,0.5,1.5,0.4
			s1-0.4,1.3-0.9l6.5-11.1c1.6,2.7,4.5,7.7,6,10.4c0.7,1.3,1.6,2,3.7,2c0.2,0,0.4,0,0.6,0h0.7l0,0c0.5,0,0.9-0.2,1.2-0.5
			c0.3-0.3,0.5-0.8,0.5-1.2c0-0.5-0.2-0.9-0.5-1.2C126.9,42.4,126.5,42.2,126,42.2z"/>
		<path class="st0" d="M152.5,42.7c-0.3-0.3-0.8-0.5-1.2-0.5l0,0H149c-0.3,0-0.7-0.6-1-1.2c-2.3-3.8-4.4-7.5-6.7-11.4
			c0-0.1,0-0.3,0-0.4c1.4-2.5,2.9-5,4.3-7.4c0.6-1.1,1.3-2.2,1.9-3.2l0.1-0.2c0.5-0.9,0.2-2-0.7-2.6s-2-0.3-2.6,0.5
			c-0.1,0.1-0.1,0.2-0.2,0.3c-0.7,1.3-1.4,2.5-2.1,3.7l-0.6,1c-0.7,1.2-1.4,2.4-2.2,3.7l-0.2,0.4c-1-1.6-2.9-4.7-5.5-9.2
			c-0.3-0.5-1-1.1-1.7-1.1c-0.6,0-13.5,0-19,0c-0.5,0-1,0.3-1.2,0.7c-0.2,0.4-0.2,1,0,1.4l0.4,0.7c0.3,0.4,0.7,0.7,1.2,0.7h8.3
			c8.1,0,8.4,0,8.5,0c0.2,0,0.2,0,0.2,0c0.1,0.1,0.3,0.4,0.5,0.7c0.1,0.2,0.3,0.4,0.4,0.6c0.6,0.8,1.8,3,2.9,5
			c0.8,1.5,1.5,2.7,1.9,3.3c0.8,1.3,0.8,1.3,0.5,1.7c-1,1.6-2.1,3.3-3.2,5.3c-1.1,1.9-3.3,5.7-4.2,7.3c-0.5,0.8-0.3,1.8,0.5,2.4
			c0.4,0.3,1,0.5,1.5,0.4s1-0.4,1.3-0.9l6.5-11.1c1.6,2.7,4.5,7.7,6,10.4c0.7,1.3,1.6,2,3.7,2c0.9,0,1.9,0,2.6,0l0,0
			c0.5,0,0.9-0.2,1.2-0.5s0.5-0.8,0.5-1.2C153,43.5,152.8,43.1,152.5,42.7z"/>
	</g>
	<g>
		<path class="st0" d="M151.4,21.1v-3.7H150v-0.5h3.4v0.5H152v3.7H151.4z"/>
		<path class="st0" d="M157.5,16.9h0.5v4.2h-0.5v-2.9l-1.2,2.9h-0.4l-1.2-2.8v2.8H154v-4.2h0.5l1.5,3.4L157.5,16.9z"/>
	</g>
</g>
</svg>
